<svg width="22" height="22" viewBox="0 0 22 22" fill="none" xmlns="http://www.w3.org/2000/svg">
<path d="M9.16667 10.0833V15.5833M12.8333 10.0833V15.5833M17.4167 5.49992V18.3333C17.4167 18.8195 17.2235 19.2858 16.8797 19.6296C16.5359 19.9734 16.0696 20.1666 15.5833 20.1666H6.41667C5.93044 20.1666 5.46412 19.9734 5.1203 19.6296C4.77649 19.2858 4.58333 18.8195 4.58333 18.3333V5.49992M2.75 5.49992H19.25M7.33333 5.49992V3.66659C7.33333 3.18036 7.52649 2.71404 7.8703 2.37022C8.21412 2.02641 8.68044 1.83325 9.16667 1.83325H12.8333C13.3196 1.83325 13.7859 2.02641 14.1297 2.37022C14.4735 2.71404 14.6667 3.18036 14.6667 3.66659V5.49992" stroke="black" stroke-width="1.5" stroke-linecap="round" stroke-linejoin="round"/>
</svg>
