<svg width="30" height="30" viewBox="0 0 30 30" fill="none" xmlns="http://www.w3.org/2000/svg">
<g clip-path="url(#clip0_167_1935)">
<path d="M23.9654 18.5874C25.1969 18.5874 26.1959 17.6139 26.1959 16.4124C26.1959 15.2109 25.1977 14.2374 23.9654 14.2374H23.4179C24.5332 14.1211 25.4054 13.2076 25.4054 12.0856C25.4054 10.8841 24.4102 9.91061 23.1824 9.91061C23.1817 9.91061 23.1809 9.91061 23.1802 9.91061H21.7139H13.6004L15.1147 4.76636L15.1079 4.76336C15.5257 3.71186 15.1289 2.48711 14.1202 1.90436C13.0109 1.26386 11.5927 1.64411 10.9522 2.75336L5.03094 12.8994H5.03694C4.25544 14.2929 3.80469 15.8971 3.80469 17.6079C3.80469 22.9314 8.12019 27.2476 13.4444 27.2476H21.7139V27.2409H21.7154C22.9469 27.2409 23.9459 26.2674 23.9459 25.0659C23.9459 23.9446 23.0722 23.0319 21.9547 22.9141H22.8404C24.0719 22.9141 25.0709 21.9406 25.0709 20.7391C25.0709 19.6179 24.1972 18.7051 23.0797 18.5874H23.9654Z" fill="#FFC84D"/>
</g>
<defs>
<clipPath id="clip0_167_1935">
<rect width="30" height="30" fill="white"/>
</clipPath>
</defs>
</svg>
