<svg width="30" height="30" viewBox="0 0 30 30" fill="none" xmlns="http://www.w3.org/2000/svg">
<g clip-path="url(#clip0_167_1940)">
<path d="M23.9654 15.7627C25.1969 15.7627 26.1959 14.7892 26.1959 13.5877C26.1959 12.3862 25.1977 11.4127 23.9654 11.4127H23.0797C24.1972 11.2949 25.0709 10.3822 25.0709 9.26094C25.0709 8.05944 24.0727 7.08594 22.8404 7.08594H21.9547C23.0722 6.96819 23.9459 6.05619 23.9459 4.93419C23.9459 3.73269 22.9477 2.75919 21.7154 2.75919H21.7139V2.75244H13.4444C8.12094 2.75244 3.80469 7.06794 3.80469 12.3922C3.80469 14.1029 4.25544 15.7072 5.03694 17.0999H5.03094L10.9522 27.2467C11.5927 28.3559 13.0109 28.7362 14.1202 28.0957C15.1289 27.5129 15.5257 26.2889 15.1079 25.2367L15.1147 25.2337L13.6004 20.0894H21.7139H23.1802C23.1809 20.0894 23.1817 20.0894 23.1824 20.0894C24.4102 20.0894 25.4054 19.1159 25.4054 17.9144C25.4054 16.7924 24.5332 15.8789 23.4179 15.7627H23.9654Z" fill="#FFC84D"/>
</g>
<defs>
<clipPath id="clip0_167_1940">
<rect width="30" height="30" fill="white"/>
</clipPath>
</defs>
</svg>
