<svg width="40" height="40" viewBox="0 0 40 40" fill="none" xmlns="http://www.w3.org/2000/svg">
<g clip-path="url(#clip0_167_1910)">
<path d="M20 37.5C29.665 37.5 37.5 29.665 37.5 20C37.5 10.335 29.665 2.5 20 2.5C10.335 2.5 2.5 10.335 2.5 20C2.5 29.665 10.335 37.5 20 37.5Z" fill="#FFC84D"/>
<path d="M29.5458 21.4111C30.2788 21.4111 30.8708 22.0671 30.7358 22.7871C29.9328 27.0851 25.4278 30.3761 19.9908 30.3761C14.5538 30.3761 10.0488 27.0851 9.24584 22.7871C9.11084 22.0671 9.70384 21.4111 10.4358 21.4111H29.5458Z" fill="#FF6D00"/>
<path d="M19.9915 23.9441C23.5565 23.9441 26.8555 23.0041 29.5465 21.4111H10.4355C13.1265 23.0041 16.4265 23.9441 19.9915 23.9441Z" fill="white"/>
<path d="M15.4226 17.7558C16.5901 17.7558 17.5366 16.8094 17.5366 15.6418C17.5366 14.4743 16.5901 13.5278 15.4226 13.5278C14.2551 13.5278 13.3086 14.4743 13.3086 15.6418C13.3086 16.8094 14.2551 17.7558 15.4226 17.7558Z" fill="black"/>
<path d="M24.5788 17.7558C25.7464 17.7558 26.6928 16.8094 26.6928 15.6418C26.6928 14.4743 25.7464 13.5278 24.5788 13.5278C23.4113 13.5278 22.4648 14.4743 22.4648 15.6418C22.4648 16.8094 23.4113 17.7558 24.5788 17.7558Z" fill="black"/>
</g>
<defs>
<clipPath id="clip0_167_1910">
<rect width="40" height="40" fill="white"/>
</clipPath>
</defs>
</svg>
