<svg width="40" height="40" viewBox="0 0 40 40" fill="none" xmlns="http://www.w3.org/2000/svg">
<g clip-path="url(#clip0_167_1873)">
<path d="M20 37.5C29.665 37.5 37.5 29.665 37.5 20C37.5 10.335 29.665 2.5 20 2.5C10.335 2.5 2.5 10.335 2.5 20C2.5 29.665 10.335 37.5 20 37.5Z" fill="#FFC84D"/>
<path d="M15.4226 19.1211C16.5901 19.1211 17.5366 18.1746 17.5366 17.0071C17.5366 15.8395 16.5901 14.8931 15.4226 14.8931C14.2551 14.8931 13.3086 15.8395 13.3086 17.0071C13.3086 18.1746 14.2551 19.1211 15.4226 19.1211Z" fill="black"/>
<path d="M24.5788 19.1211C25.7464 19.1211 26.6928 18.1746 26.6928 17.0071C26.6928 15.8395 25.7464 14.8931 24.5788 14.8931C23.4113 14.8931 22.4648 15.8395 22.4648 17.0071C22.4648 18.1746 23.4113 19.1211 24.5788 19.1211Z" fill="black"/>
<path d="M19.9992 25.0672C16.3932 25.0672 14.1642 26.4412 12.8652 27.7332C12.4842 28.1122 11.8692 27.6482 12.1282 27.1772C13.4002 24.8672 16.0922 22.5122 19.9982 22.5122C23.9042 22.5122 26.5962 24.8672 27.8682 27.1772C28.1272 27.6482 27.5132 28.1132 27.1312 27.7332C25.8322 26.4412 23.6042 25.0672 19.9972 25.0672H19.9992Z" fill="#FF6D00"/>
</g>
<defs>
<clipPath id="clip0_167_1873">
<rect width="40" height="40" fill="white"/>
</clipPath>
</defs>
</svg>
