<svg width="40" height="40" viewBox="0 0 40 40" fill="none" xmlns="http://www.w3.org/2000/svg">
<g clip-path="url(#clip0_167_1882)">
<path d="M20 37.5C29.665 37.5 37.5 29.665 37.5 20C37.5 10.335 29.665 2.5 20 2.5C10.335 2.5 2.5 10.335 2.5 20C2.5 29.665 10.335 37.5 20 37.5Z" fill="#FFC84D"/>
<path d="M15.4226 19.1211C16.5901 19.1211 17.5366 18.1746 17.5366 17.0071C17.5366 15.8395 16.5901 14.8931 15.4226 14.8931C14.2551 14.8931 13.3086 15.8395 13.3086 17.0071C13.3086 18.1746 14.2551 19.1211 15.4226 19.1211Z" fill="black"/>
<path d="M24.5788 19.1211C25.7464 19.1211 26.6928 18.1746 26.6928 17.0071C26.6928 15.8395 25.7464 14.8931 24.5788 14.8931C23.4113 14.8931 22.4648 15.8395 22.4648 17.0071C22.4648 18.1746 23.4113 19.1211 24.5788 19.1211Z" fill="black"/>
<path d="M19.9993 25.98C16.9633 25.98 14.8883 26.645 13.9533 27.024C13.6893 27.131 13.4443 26.846 13.5793 26.595C14.3013 25.253 16.9873 23.917 19.9993 23.917C23.0113 23.917 25.6973 25.253 26.4193 26.595C26.5543 26.846 26.3093 27.13 26.0453 27.024C25.1103 26.645 23.0353 25.98 19.9993 25.98Z" fill="#FF6D00"/>
</g>
<defs>
<clipPath id="clip0_167_1882">
<rect width="40" height="40" fill="white"/>
</clipPath>
</defs>
</svg>
