<svg width="40" height="40" viewBox="0 0 40 40" fill="none" xmlns="http://www.w3.org/2000/svg">
<g clip-path="url(#clip0_167_1901)">
<path d="M20 37.5C29.665 37.5 37.5 29.665 37.5 20C37.5 10.335 29.665 2.5 20 2.5C10.335 2.5 2.5 10.335 2.5 20C2.5 29.665 10.335 37.5 20 37.5Z" fill="#FFC84D"/>
<path d="M15.4226 18.7558C16.5901 18.7558 17.5366 17.8094 17.5366 16.6418C17.5366 15.4743 16.5901 14.5278 15.4226 14.5278C14.2551 14.5278 13.3086 15.4743 13.3086 16.6418C13.3086 17.8094 14.2551 18.7558 15.4226 18.7558Z" fill="black"/>
<path d="M24.5788 18.7558C25.7464 18.7558 26.6928 17.8094 26.6928 16.6418C26.6928 15.4743 25.7464 14.5278 24.5788 14.5278C23.4113 14.5278 22.4648 15.4743 22.4648 16.6418C22.4648 17.8094 23.4113 18.7558 24.5788 18.7558Z" fill="black"/>
<path d="M20.0001 24.5191C17.0101 24.5191 14.7971 23.9821 13.4801 23.5381C12.8961 23.3411 12.4141 24.0651 12.8451 24.5061C14.1481 25.8401 16.9331 26.9951 20.0011 26.9951C23.0691 26.9951 25.8541 25.8401 27.1571 24.5061C27.5881 24.0651 27.1061 23.3421 26.5221 23.5381C25.2041 23.9821 22.9911 24.5191 20.0021 24.5191H20.0001Z" fill="#FF6D00"/>
</g>
<defs>
<clipPath id="clip0_167_1901">
<rect width="40" height="40" fill="white"/>
</clipPath>
</defs>
</svg>
