<svg width="40" height="40" viewBox="0 0 40 40" fill="none" xmlns="http://www.w3.org/2000/svg">
<g clip-path="url(#clip0_167_1890)">
<path d="M20 37.5C29.665 37.5 37.5 29.665 37.5 20C37.5 10.335 29.665 2.5 20 2.5C10.335 2.5 2.5 10.335 2.5 20C2.5 29.665 10.335 37.5 20 37.5Z" fill="#FFC84D"/>
<path d="M15.4902 19.0429C16.6865 19.0429 17.6562 18.0732 17.6562 16.8769C17.6562 15.6807 16.6865 14.7109 15.4902 14.7109C14.294 14.7109 13.3242 15.6807 13.3242 16.8769C13.3242 18.0732 14.294 19.0429 15.4902 19.0429Z" fill="black"/>
<path d="M24.5099 19.043C25.6857 19.043 26.6389 17.9143 26.6389 16.522C26.6389 15.1297 25.6857 14.001 24.5099 14.001C23.334 14.001 22.3809 15.1297 22.3809 16.522C22.3809 17.9143 23.334 19.043 24.5099 19.043Z" fill="black"/>
<path d="M15.0897 12.6179C16.2497 12.7189 16.8967 13.0439 17.4447 13.3449C17.7607 13.5179 18.0357 13.2849 17.9007 12.9239C17.6107 12.1439 16.7407 11.2569 15.2207 11.1239C13.7007 10.9909 12.6897 11.7129 12.2687 12.4309C12.0737 12.7629 12.3037 13.0399 12.6447 12.9239C13.2367 12.7239 13.9297 12.5159 15.0897 12.6169V12.6179Z" fill="black"/>
<path d="M25.0435 9.61786C23.8835 9.71886 23.2365 10.0439 22.6885 10.3449C22.3725 10.5179 22.0975 10.2849 22.2325 9.92386C22.5225 9.14386 23.3925 8.25686 24.9125 8.12386C26.4325 7.99086 27.4435 8.71286 27.8645 9.43086C28.0595 9.76286 27.8295 10.0399 27.4885 9.92386C26.8965 9.72386 26.2035 9.51586 25.0435 9.61686V9.61786Z" fill="black"/>
<path d="M25.6977 25.1382H14.3027C13.7497 25.1382 13.3027 24.6902 13.3027 24.1382C13.3027 23.5862 13.7497 23.1382 14.3027 23.1382H25.6977C26.2507 23.1382 26.6977 23.5862 26.6977 24.1382C26.6977 24.6902 26.2507 25.1382 25.6977 25.1382Z" fill="#FF6D00"/>
</g>
<defs>
<clipPath id="clip0_167_1890">
<rect width="40" height="40" fill="white"/>
</clipPath>
</defs>
</svg>
